# xmcd
#
# Track frame offsets:
#	150
#	34887
#	69859
#	94409
#	118444
#	146727
#	185542
#	212452
#	235824
#	262196
#	293976
#
# Disc length: 4390 seconds
#
# Revision: 1
# Processed by: cddbd v1.5PL3 Copyright (c) Steve Scherf et al.
# Submitted via: CDex 1.50Beta5
#
DISCID=af11240b
DTITLE=Every Little Thing - THE REMIXES
DYEAR=1997
DGENRE=Pop
TTITLE0=Feel My Heart(Plasma Mix)
TTITLE1=Season(Cloudy Skies Mix)
TTITLE2=I'll get over you(intensive Mix)
TTITLE3=Looking Back On Your Love(Groove That Soul Mix)
TTITLE4=Here and everywhere(Super Bootbeat Mix)
TTITLE5=Future World(Right Attitude Remix)
TTITLE6=Dear My Friend('97 Pumped Up Mix)
TTITLE7=Never Stop!(Satoshi's Summer Breeze Mix)
TTITLE8=I'll get over you(Lightfoot's Dow eat Mix)
TTITLE9=たとえ遠く離れてても・・・(Trip Strip Mix)
TTITLE10=Future World(Future Contact Mix)
EXTD=
EXTT0=
EXTT1=
EXTT2=
EXTT3=
EXTT4=
EXTT5=
EXTT6=
EXTT7=
EXTT8=
EXTT9=
EXTT10=
PLAYORDER=
